<svg width="30" height="43" viewBox="0 0 30 43" fill="none" xmlns="http://www.w3.org/2000/svg">
<path fill-rule="evenodd" clip-rule="evenodd" d="M26.6244 19.0324V19.4866C28.2871 19.9408 29.3335 20.9547 29.5362 22.6742C29.6903 24.2315 29.0252 25.4563 27.6302 26.1619C26.0161 26.973 24.5642 26.5837 23.2745 25.3265C22.9285 25.5257 22.5825 25.7264 22.2339 25.9287C21.7735 26.1958 21.3086 26.4655 20.8331 26.7378C20.9142 26.8838 20.9872 27.0136 21.0684 27.1434C21.6391 28.0513 22.2082 28.9593 22.7769 29.8668C23.9864 31.7965 25.1943 33.7238 26.4135 35.6437C27.0867 36.7062 27.1192 36.9414 26.4784 38.0202C26.379 38.1874 26.279 38.3543 26.179 38.5212C25.7407 39.253 25.3026 39.9845 24.913 40.7374C24.4182 41.6864 23.7369 42.3839 22.6662 42.6272H6.80922C5.73857 42.3271 5.08969 41.589 4.59492 40.6319C4.28068 40.0248 3.93146 39.4351 3.58171 38.8445C3.39885 38.5357 3.21584 38.2267 3.03761 37.9148C2.45362 36.9009 2.47795 36.7143 3.1025 35.7248C3.54051 35.0313 3.9765 34.3377 4.41248 33.6442C4.84843 32.9508 5.28438 32.2573 5.72235 31.5638C5.99001 31.134 6.33067 31.0204 6.67134 31.2313C7.012 31.4422 7.06878 31.8072 6.80111 32.2289C6.57509 32.5897 6.35163 32.9523 6.12822 33.3149C5.55791 34.2405 4.98786 35.1657 4.37593 36.0573C4.08619 36.4777 3.94017 36.668 3.93684 36.8609C3.93355 37.0513 4.06943 37.2442 4.34348 37.6633C4.85593 38.4528 5.31516 39.2777 5.77167 40.0977C5.84985 40.2381 5.92796 40.3784 6.00624 40.5184C6.33068 41.0943 6.80111 41.3538 7.4581 41.3538C12.3328 41.3457 17.2075 41.3457 22.0822 41.3538C22.7554 41.3538 23.234 41.078 23.5665 40.494C24.1586 39.4396 24.767 38.3852 25.3834 37.3389C25.56 37.0378 25.6472 36.9434 25.6441 36.852C25.6409 36.7588 25.5435 36.6687 25.351 36.3656L25.3507 36.3652C23.096 32.7803 20.8412 29.1953 18.6026 25.6023C18.4323 25.3184 18.3187 24.9534 18.3187 24.6208C18.2993 22.778 18.3006 20.9352 18.3019 19.0923C18.3022 18.6316 18.3025 18.1709 18.3025 17.7103V17.1668H16.437C15.8611 17.1587 15.5772 16.9397 15.5853 16.5179C15.5934 16.1043 15.8935 15.8853 16.4613 15.8853C16.8466 15.8812 17.2339 15.8812 17.6222 15.8812C18.0105 15.8812 18.3998 15.8812 18.7892 15.8772C19.3245 15.8772 19.6165 15.6257 19.6165 15.1877C19.6165 14.7497 19.3326 14.4983 18.7892 14.4983C16.1206 14.4902 13.444 14.4902 10.7755 14.4902C10.2077 14.4902 9.90762 14.7497 9.91574 15.1959C9.91574 15.642 10.2158 15.8772 10.7917 15.8772C11.057 15.8772 11.3213 15.8763 11.5854 15.8754C12.1126 15.8736 12.6386 15.8718 13.1682 15.8772C13.663 15.8772 13.955 16.1205 13.955 16.5098C13.9631 16.9154 13.6792 17.1506 13.1845 17.1506H11.2703C11.2689 17.1656 11.2675 17.1804 11.2662 17.1952C11.2514 17.3563 11.2378 17.5049 11.2378 17.6535C11.2378 18.2277 11.2373 18.8014 11.2368 19.3748C11.2353 21.0933 11.2338 22.8084 11.2459 24.5235C11.2541 24.9534 11.1486 25.3184 10.9134 25.6753C10.1267 26.9 9.35615 28.1328 8.58564 29.3656L8.58553 29.3658C8.57011 29.39 8.55529 29.4136 8.54074 29.4368C8.50173 29.499 8.46467 29.5581 8.42331 29.6172C8.17998 29.9579 7.85554 30.0471 7.54733 29.8686C7.22289 29.674 7.13366 29.3171 7.35266 28.9521C7.623 28.5055 7.90185 28.0631 8.17996 27.6219C8.28569 27.4541 8.39131 27.2866 8.49631 27.119C8.54603 27.0417 8.592 26.9606 8.64445 26.868C8.669 26.8247 8.69497 26.7788 8.72342 26.7297C7.90421 26.2511 7.10122 25.7888 6.28201 25.3184C4.95992 26.6161 3.45127 26.9892 1.80474 26.0889C0.482647 25.3589 -0.0932339 24.1585 0.012209 22.6499C0.117652 21.198 1.01797 20.2003 2.90783 19.4622C2.90783 18.9714 2.90565 18.4799 2.90346 17.9877C2.89835 16.8366 2.89322 15.6816 2.91595 14.5226C2.92406 13.8981 2.84295 13.5574 2.13729 13.2817C0.717866 12.7382 -0.012124 11.5621 0.00409804 10.0291C0.02032 8.51239 0.774643 7.42552 2.1454 6.80097C3.43505 6.21698 4.96803 6.50898 5.99812 7.49041C6.03683 7.52911 6.07 7.57152 6.10467 7.61585C6.14266 7.66441 6.18246 7.7153 6.23334 7.76618C6.77678 7.4569 7.30819 7.15004 7.83543 6.84557C8.2761 6.5911 8.71386 6.33831 9.1533 6.0872C9.36148 5.96824 9.56876 5.84748 9.77604 5.72672C10.1906 5.48519 10.6052 5.24366 11.0269 5.01655C11.2946 4.87055 11.3838 4.74078 11.3108 4.40012C10.9945 2.94014 11.4082 1.69916 12.5924 0.782613C13.7603 -0.117708 15.0581 -0.247484 16.3721 0.425729C17.6861 1.09894 18.3187 2.22637 18.3106 3.70257C18.3064 3.84715 18.2776 3.99395 18.2488 4.14065C18.2227 4.27378 18.1967 4.40681 18.189 4.538C18.189 4.65967 18.2457 4.84622 18.335 4.903C19.5627 5.62378 20.7951 6.33536 22.0355 7.0516C22.4422 7.28643 22.8498 7.52175 23.2583 7.75807C23.9072 7.06052 24.6777 6.63064 25.6186 6.53331C27.4355 6.34676 29.0658 7.53096 29.4551 9.3316C29.8363 11.0917 28.8306 12.8761 27.111 13.4195C26.6974 13.5493 26.6082 13.7278 26.6163 14.1171C26.6337 15.2874 26.6303 16.4577 26.627 17.628C26.6257 18.0961 26.6244 18.5642 26.6244 19.0324ZM22.3174 24.4018C22.5608 24.2639 22.6013 24.1261 22.5364 23.8665C22.1796 22.4228 22.723 20.9303 23.9478 20.0949C24.2184 19.9145 24.5203 19.7792 24.833 19.639C24.9982 19.565 25.1665 19.4896 25.3347 19.4055C25.3377 19.3942 25.3429 19.3714 25.3429 19.3487C25.3429 18.8906 25.3423 18.4321 25.3418 17.9733C25.3403 16.596 25.3388 15.2164 25.351 13.8413C25.351 13.5787 25.2185 13.5367 25.0307 13.4773C25.0214 13.4743 25.0118 13.4713 25.0022 13.4682C23.1123 12.9004 22.0741 11.0836 22.5446 9.16127C22.6094 8.89361 22.5364 8.78817 22.3174 8.6665C21.9219 8.44788 21.5296 8.21924 21.1385 7.99129C20.9202 7.86405 20.7023 7.73702 20.4844 7.61207C19.9058 7.28082 19.33 6.94958 18.7569 6.61987C18.3336 6.37638 17.9118 6.13373 17.4914 5.89254C15.8611 7.57963 13.5576 7.49852 12.0246 5.88443C11.0037 6.47672 9.98861 7.06329 8.97749 7.64753C8.28548 8.0474 7.59535 8.44617 6.90656 8.84494C7.58788 11.1728 6.20901 12.9978 4.52192 13.4601C4.22182 13.5412 4.16504 13.671 4.16504 13.9549C4.1772 15.2503 4.17569 16.5413 4.17416 17.8345C4.17366 18.2659 4.17315 18.6975 4.17315 19.1297C4.17315 19.2514 4.18126 19.373 4.18937 19.4866C6.47667 20.2084 7.31211 21.5873 6.95522 24.0125C6.939 24.1017 6.97955 24.2477 7.04444 24.2883C7.57993 24.6096 8.12325 24.923 8.69074 25.2504C8.93985 25.3941 9.19361 25.5406 9.45341 25.6915C9.51234 25.5549 9.58366 25.4236 9.65304 25.2958C9.79375 25.0367 9.92653 24.7923 9.93196 24.5478C9.97251 22.147 9.95629 19.7461 9.94007 17.3453C9.94007 17.2236 9.8184 17.0452 9.70485 16.9722C8.83697 16.4449 8.43953 15.5771 8.68286 14.6768C8.92619 13.7927 9.68052 13.233 10.6782 13.2168C11.1216 13.2114 11.565 13.2132 12.0084 13.215C12.2301 13.2159 12.4518 13.2168 12.6735 13.2168C13.3599 13.2168 14.0472 13.2159 14.7349 13.215C16.111 13.2132 17.4884 13.2114 18.8622 13.2168C19.8517 13.2249 20.6141 13.8089 20.8412 14.7011C21.0684 15.6014 20.679 16.4855 19.8112 16.9478C19.5597 17.0776 19.5597 17.2398 19.5597 17.4588C19.5597 18.0189 19.5607 18.5784 19.5617 19.1375C19.5648 20.8135 19.5678 22.486 19.5435 24.1585C19.5354 24.7668 19.7787 25.2048 20.1356 25.6509C20.3918 25.5045 20.6451 25.3571 20.8972 25.2105C21.3712 24.9346 21.8409 24.6613 22.3174 24.4018ZM25.3325 19.4128C25.3325 19.4125 25.3331 19.4104 25.3345 19.4061C25.3333 19.4106 25.3324 19.4131 25.3325 19.4128ZM6.11982 37.3633L6.11974 37.3632C5.9413 37.0874 5.94941 36.8441 6.14408 36.5845C7.59594 34.427 9.04781 32.2614 10.4916 30.0957C10.6619 29.8443 10.8728 29.7307 11.1972 29.7307C13.5819 29.7389 15.9746 29.7389 18.3592 29.7307C18.6837 29.7226 18.8946 29.8443 19.0649 30.0957C20.5005 32.2452 21.9443 34.4027 23.3881 36.5521C23.5827 36.8441 23.5989 37.1036 23.4043 37.4038C22.9176 38.1581 22.4553 38.9205 21.993 39.6911C21.8226 39.9749 21.5793 40.0966 21.2305 40.0966H16.8668L12.6248 40.0885C12.2719 40.0885 11.9191 40.088 11.5663 40.0875C10.5078 40.086 9.44931 40.0844 8.39082 40.0966C7.96905 40.0966 7.7095 39.9587 7.50672 39.6181C7.06064 38.8557 6.59023 38.1095 6.11982 37.3633ZM13.7684 32.1622C13.2385 32.1604 12.7086 32.1586 12.1787 32.164C11.7326 32.1722 11.4811 32.3587 11.4487 32.675C11.3919 33.0725 11.6677 33.3401 12.1624 33.3483C12.7461 33.3537 13.3262 33.3519 13.9075 33.3501C14.1986 33.3492 14.49 33.3483 14.7823 33.3483C15.0689 33.3483 15.3555 33.3492 15.6421 33.3501C16.2152 33.3519 16.7884 33.3537 17.3616 33.3483C17.8645 33.3483 18.1484 33.0563 18.0754 32.6426C18.0186 32.3344 17.7671 32.164 17.3048 32.164C16.6941 32.1586 16.087 32.1604 15.4786 32.1622C15.174 32.1631 14.8691 32.164 14.5633 32.164C14.2983 32.164 14.0334 32.1631 13.7684 32.1622ZM10.5078 34.3459C10.3293 34.4189 10.1347 34.5406 10.0536 34.6947C9.83458 35.0921 10.1752 35.4814 10.7349 35.4896H14.7661H17.7022C17.8012 35.4896 17.9007 35.4901 18.0006 35.4906C18.3017 35.4921 18.6062 35.4936 18.9108 35.4814C19.2758 35.4652 19.5434 35.2057 19.5434 34.8975C19.5434 34.6055 19.3082 34.3702 18.9513 34.3216C18.8053 34.3054 18.6675 34.3054 18.5215 34.3054H11.0107C10.9744 34.3054 10.9373 34.3042 10.9001 34.3031C10.7626 34.299 10.6227 34.2949 10.5078 34.3459ZM9.38847 36.4629C9.29114 36.4629 9.20192 36.4629 9.1127 36.4791C8.73148 36.5602 8.52871 36.9495 8.69093 37.274C8.83693 37.5579 9.09648 37.6146 9.4047 37.6146H14.7255H20.1274C20.5898 37.6146 20.8736 37.3875 20.8818 37.0388C20.8899 36.69 20.606 36.4629 20.1437 36.4629H9.38847Z" fill="#FEFEFE"/>
</svg>
