<svg width="11" height="9" viewBox="0 0 11 9" fill="none" xmlns="http://www.w3.org/2000/svg">
<path d="M10.1018 0.801787C9.99268 0.698217 9.86487 0.618091 9.72579 0.566031C9.58671 0.513971 9.43909 0.490995 9.29143 0.498439C9.14376 0.505884 8.99899 0.543602 8.86542 0.609408C8.73184 0.675214 8.61211 0.767815 8.51314 0.881877C8.13783 1.28234 7.78822 1.70951 7.41805 2.12066L4.38982 5.57C3.71631 4.90256 3.08908 4.25647 2.43613 3.63709C2.21679 3.42209 1.9253 3.30457 1.62374 3.30956C1.32218 3.31454 1.03439 3.44164 0.821758 3.66378C0.717408 3.7756 0.635317 3.90767 0.580132 4.05246C0.524947 4.19725 0.497757 4.35191 0.500145 4.50761C0.502532 4.66331 0.534438 4.81701 0.594033 4.9599C0.653629 5.10279 0.739765 5.23209 0.847489 5.3404C1.77292 6.30152 2.71549 7.24305 3.6752 8.16501C3.77643 8.27028 3.89662 8.3538 4.02895 8.41077C4.16127 8.46775 4.30315 8.49707 4.44639 8.49707C4.58964 8.49707 4.73148 8.46775 4.86381 8.41077C4.99614 8.3538 5.11636 8.27028 5.21759 8.16501L5.28443 8.09027C6.93992 6.22142 8.58341 4.3419 10.2149 2.45171C10.3137 2.33611 10.3895 2.2014 10.4381 2.05531C10.4866 1.90922 10.507 1.75462 10.4979 1.60036C10.4888 1.44609 10.4505 1.2952 10.3852 1.15633C10.3199 1.01747 10.2288 0.893346 10.1172 0.791097L10.1018 0.801787Z" fill="white"/>
</svg>
