<svg width="6" height="12" viewBox="0 0 6 12" fill="none" xmlns="http://www.w3.org/2000/svg">
<path d="M3.77778 5.99396L0.270074 2.37291C0.0971193 2.19374 0 1.95111 0 1.69817C0 1.44523 0.0971193 1.20261 0.270074 1.02345C0.355084 0.935385 0.456116 0.865506 0.567341 0.817829C0.678566 0.770152 0.797832 0.745605 0.918264 0.745605C1.0387 0.745605 1.1579 0.770152 1.26912 0.817829C1.38035 0.865506 1.48138 0.935385 1.56639 1.02345L5.73857 5.33048C5.90573 5.5083 5.99945 5.74618 6 5.99396C6 6.24518 5.9064 6.48678 5.73857 6.6687L1.56639 10.9757C1.39017 11.149 1.15617 11.2456 0.912812 11.2456C0.733142 11.2409 0.558657 11.1823 0.410696 11.077C0.262734 10.9716 0.14766 10.8241 0.0795193 10.6524C0.0113783 10.4808 -0.00690842 10.2923 0.0269275 10.1101C0.0607634 9.92787 0.145263 9.75976 0.270074 9.62625L3.77778 5.99396Z" fill="white"/>
</svg>
