<svg width="7" height="12" viewBox="0 0 7 12" fill="none" xmlns="http://www.w3.org/2000/svg">
<path d="M2.72222 5.99396L6.22993 2.37291C6.40288 2.19374 6.5 1.95111 6.5 1.69817C6.5 1.44523 6.40288 1.20261 6.22993 1.02345C6.14492 0.935385 6.04388 0.865506 5.93266 0.817829C5.82143 0.770152 5.70217 0.745605 5.58174 0.745605C5.4613 0.745605 5.3421 0.770152 5.23088 0.817829C5.11965 0.865506 5.01862 0.935385 4.93361 1.02345L0.76143 5.33048C0.594275 5.5083 0.50055 5.74618 0.5 5.99396C0.5 6.24518 0.593601 6.48678 0.76143 6.6687L4.93361 10.9757C5.10983 11.149 5.34383 11.2456 5.58719 11.2456C5.76686 11.2409 5.94134 11.1823 6.0893 11.077C6.23727 10.9716 6.35234 10.8241 6.42048 10.6524C6.48862 10.4808 6.50691 10.2923 6.47307 10.1101C6.43924 9.92787 6.35474 9.75976 6.22993 9.62625L2.72222 5.99396Z" fill="#007AFF"/>
</svg>
