<svg width="15" height="16" viewBox="0 0 15 16" fill="none" xmlns="http://www.w3.org/2000/svg">
<g filter="url(#filter0_d_263_985)">
<path fill-rule="evenodd" clip-rule="evenodd" d="M4.72899 1.92125C4.85024 1.97184 4.96026 2.04595 5.05269 2.13929L7.50211 4.5799L9.94449 2.13935C10.0369 2.04598 10.147 1.97186 10.2683 1.92125C10.3897 1.87058 10.5199 1.84448 10.6515 1.84448C10.7831 1.84448 10.9134 1.87058 11.0348 1.92125C11.1561 1.97188 11.2662 2.04606 11.3587 2.13949C11.5453 2.32709 11.6501 2.58089 11.6501 2.84546C11.6501 3.11009 11.545 3.36422 11.3583 3.55183L8.91578 5.9925L11.3586 8.44045C11.5453 8.62806 11.6501 8.88189 11.6501 9.14652C11.6501 9.41115 11.5447 9.6656 11.358 9.85321C11.1702 10.0398 10.9163 10.1445 10.6515 10.1445C10.3868 10.1445 10.1324 10.0393 9.94462 9.85276L7.50211 7.4051L5.05218 9.85321C4.86444 10.0398 4.61045 10.1445 4.34572 10.1445C4.08099 10.1445 3.82701 10.0398 3.63927 9.85321L3.63779 9.85172C3.45338 9.66327 3.3501 9.41014 3.3501 9.14652C3.3501 8.8829 3.45338 8.62979 3.63779 8.44135L3.63897 8.44016L6.08845 5.9925L3.63779 3.55064C3.45338 3.36219 3.3501 3.10908 3.3501 2.84546C3.3501 2.58184 3.45394 2.32814 3.63836 2.13969C3.73087 2.04616 3.84104 1.97192 3.96246 1.92125C4.08387 1.87058 4.21414 1.84448 4.34572 1.84448C4.47731 1.84448 4.60757 1.87058 4.72899 1.92125Z" fill="white"/>
</g>
<defs>
<filter id="filter0_d_263_985" x="0.350098" y="0.844482" width="14.2998" height="14.3" filterUnits="userSpaceOnUse" color-interpolation-filters="sRGB">
<feFlood flood-opacity="0" result="BackgroundImageFix"/>
<feColorMatrix in="SourceAlpha" type="matrix" values="0 0 0 0 0 0 0 0 0 0 0 0 0 0 0 0 0 0 127 0" result="hardAlpha"/>
<feOffset dy="2"/>
<feGaussianBlur stdDeviation="1.5"/>
<feComposite in2="hardAlpha" operator="out"/>
<feColorMatrix type="matrix" values="0 0 0 0 0.7375 0 0 0 0 0.277792 0 0 0 0 0.443287 0 0 0 0.1 0"/>
<feBlend mode="normal" in2="BackgroundImageFix" result="effect1_dropShadow_263_985"/>
<feBlend mode="normal" in="SourceGraphic" in2="effect1_dropShadow_263_985" result="shape"/>
</filter>
</defs>
</svg>
